<svg xmlns="http://www.w3.org/2000/svg" xmlns:xlink="http://www.w3.org/1999/xlink" xmlns:lucid="lucid" width="2456.98" height="983.15"><g transform="translate(2125 185)" lucid:page-tab-id="0_0"><path d="M-1916.98-120c44.5 0 80.56 36.07 80.56 80.56 0 44.5-36.07 80.57-80.56 80.57h-122.46c-44.5 0-80.56-36.07-80.56-80.57 0-44.5 36.07-80.56 80.56-80.56z" stroke="#003d87" stroke-width="10" fill="#edf5ff"/><use xlink:href="#a" transform="matrix(1,0,0,1,-2115,-115) translate(77.68359375 91)"/><path d="M-1360-153.9a6 6 0 0 1 6-6h171.58a6 6 0 0 1 6 6V75.33a6 6 0 0 1-6 6H-1354a6 6 0 0 1-6-6z" stroke="#003d87" stroke-width="10" fill="#6db1ff"/><use xlink:href="#b" transform="matrix(1,0,0,1,-1348,-147.89761986677195) translate(-2.40234375 99.3515625)"/><use xlink:href="#c" transform="matrix(1,0,0,1,-1348,-147.89761986677195) translate(17.548828125 147.75)"/><path d="M-1400.44-44.26v9.95h-14.58v-9.96zm-425.98 9.8v-9.95h45.02v9.94z" stroke="#3a414a" stroke-width=".05" fill="#3a414a"/><path d="M-1826.3-34.46h-5.27l.15-4.92-.02-1.78-.16-3.25h5.3z" fill="#3a414a"/><path stroke="#3a414a" stroke-width=".05" fill="#3a414a"/><path d="M-1381.18-39.28l-14.27 4.63v-9.27z" fill="#3a414a"/><path d="M-1365.08-39.28l-35.34 11.48v-22.97z" stroke="#3a414a" stroke-width=".05" fill="#3a414a"/><use xlink:href="#d" transform="matrix(1,0,0,1,-1781.3972354082596,-52.80413458399123) translate(0 21.52777777777778)"/><use xlink:href="#e" transform="matrix(1,0,0,1,-1781.3972354082596,-52.80413458399123) translate(5.262586805555555 21.52777777777778)"/><use xlink:href="#f" transform="matrix(1,0,0,1,-1781.3972354082596,-52.80413458399123) translate(102.08333333333331 21.52777777777778)"/><use xlink:href="#g" transform="matrix(1,0,0,1,-1781.3972354082596,-52.80413458399123) translate(190.98307291666663 21.52777777777778)"/><use xlink:href="#h" transform="matrix(1,0,0,1,-1781.3972354082596,-52.80413458399123) translate(270.1714409722222 21.52777777777778)"/><use xlink:href="#i" transform="matrix(1,0,0,1,-1781.3972354082596,-52.80413458399123) translate(296.9835069444444 21.52777777777778)"/><path d="M-1398.2 504.48a6 6 0 0 1 6-6h248a6 6 0 0 1 6 6V733.7a6 6 0 0 1-6 6h-248a6 6 0 0 1-6-6z" stroke="#003d87" stroke-width="10" fill="#6db1ff"/><use xlink:href="#b" transform="matrix(1,0,0,1,-1386.2105263157896,510.48093993227997) translate(35.59765625 72.8125)"/><use xlink:href="#j" transform="matrix(1,0,0,1,-1386.2105263157896,510.48093993227997) translate(25.646484375 121.2109375)"/><use xlink:href="#k" transform="matrix(1,0,0,1,-1386.2105263157896,510.48093993227997) translate(33.751953125 169.609375)"/><path d="M-1263.24 458.04h-9.95V273.7h9.96zm0-238.13h-9.95V91.34h9.96z" stroke="#3a414a" stroke-width=".05" fill="#3a414a"/><path d="M-1263.24 91.46h-9.95v-5.13h9.96z" fill="#3a414a"/><path stroke="#3a414a" stroke-width=".05" fill="#3a414a"/><path d="M-1268.2 477.3l-4.65-14.26h9.27z" fill="#3a414a"/><path d="M-1268.2 493.4l-11.5-35.34h22.97z" stroke="#3a414a" stroke-width=".05" fill="#3a414a"/><use xlink:href="#l" transform="matrix(1,0,0,1,-1474.9650836074563,219.9112162614025) translate(0 21.52777777777778)"/><use xlink:href="#e" transform="matrix(1,0,0,1,-1474.9650836074563,219.9112162614025) translate(94.8459201388889 21.52777777777778)"/><use xlink:href="#f" transform="matrix(1,0,0,1,-1474.9650836074563,219.9112162614025) translate(191.66666666666666 21.52777777777778)"/><use xlink:href="#g" transform="matrix(1,0,0,1,-1474.9650836074563,219.9112162614025) translate(280.56640625 21.52777777777778)"/><use xlink:href="#h" transform="matrix(1,0,0,1,-1474.9650836074563,219.9112162614025) translate(359.75477430555554 21.52777777777778)"/><use xlink:href="#m" transform="matrix(1,0,0,1,-1474.9650836074563,219.9112162614025) translate(386.56684027777777 21.52777777777778)"/><use xlink:href="#n" transform="matrix(1,0,0,1,-1474.9650836074563,219.9112162614025) translate(0 48.415798611111114)"/><path d="M-800-154a6 6 0 0 1 6-6h299.58a6 6 0 0 1 6 6V75.33a6 6 0 0 1-6 6H-794a6 6 0 0 1-6-6z" stroke="#003d87" stroke-width="10" fill="#6db1ff"/><use xlink:href="#o" transform="matrix(1,0,0,1,-788,-148) translate(-6.37109375 99.3515625)"/><use xlink:href="#p" transform="matrix(1,0,0,1,-788,-148) translate(32.75 147.75)"/><path d="M-75.37-174a6 6 0 0 1 6-6H194a6 6 0 0 1 6 6V95.43a6 6 0 0 1-6 6H-69.37a6 6 0 0 1-6-6z" stroke="#003d87" stroke-width="10" fill="#6db1ff"/><use xlink:href="#q" transform="matrix(1,0,0,1,-63.36842105263159,-168) translate(11.91796875 71)"/><use xlink:href="#r" transform="matrix(1,0,0,1,-63.36842105263159,-168) translate(146.13671875 71)"/><use xlink:href="#s" transform="matrix(1,0,0,1,-63.36842105263159,-168) translate(35.6484375 119.3984375)"/><use xlink:href="#t" transform="matrix(1,0,0,1,-63.36842105263159,-168) translate(189.203125 119.3984375)"/><use xlink:href="#u" transform="matrix(1,0,0,1,-63.36842105263159,-168) translate(19.349609375 167.796875)"/><use xlink:href="#v" transform="matrix(1,0,0,1,-63.36842105263159,-168) translate(4.203125 216.1953125)"/><use xlink:href="#w" transform="matrix(1,0,0,1,-63.36842105263159,-168) translate(64.49609375 216.1953125)"/><path d="M-1118.7 560.68h-9.5v-9.95h9.5zm376.62-11.38l-.12 1.52-.4 1.68-.66 1.6-.9 1.46-1.12 1.3-1.3 1.13-1.5.9-1.58.65-1.68.4-1.52.13h-26.1v-9.95h25.7l.36-.03.16-.04.14-.06.14-.08.12-.1.1-.12.1-.14.05-.15.04-.14.03-.35V121.8h9.95z" stroke="#3a414a" stroke-width=".05" fill="#3a414a"/><path d="M-1128.08 560.68h-5.13v-9.95h5.12z" fill="#3a414a"/><path stroke="#3a414a" stroke-width=".05" fill="#3a414a"/><path d="M-742.42 116.78h-9.27l4.65-14.27z" fill="#3a414a"/><path d="M-735.57 121.75h-22.97l11.5-35.34z" stroke="#3a414a" stroke-width=".05" fill="#3a414a"/><use xlink:href="#x" transform="matrix(1,0,0,1,-1118.6878296462432,541.6583851190863) translate(0 21.52777777777778)"/><use xlink:href="#y" transform="matrix(1,0,0,1,-1118.6878296462432,541.6583851190863) translate(19.60720486111111 21.52777777777778)"/><use xlink:href="#z" transform="matrix(1,0,0,1,-1118.6878296462432,541.6583851190863) translate(107.85590277777779 21.52777777777778)"/><use xlink:href="#A" transform="matrix(1,0,0,1,-1118.6878296462432,541.6583851190863) translate(200.20616319444446 21.52777777777778)"/><use xlink:href="#B" transform="matrix(1,0,0,1,-1118.6878296462432,541.6583851190863) translate(223.42664930555557 21.52777777777778)"/><use xlink:href="#C" transform="matrix(1,0,0,1,-1118.6878296462432,541.6583851190863) translate(264.98480902777777 21.52777777777778)"/><path d="M-1076.97 657.06h-51.24v-9.95h51.23zm400.5-10.78l-.12 1.52-.4 1.68-.65 1.6-.9 1.46-1.13 1.32-1.3 1.12-1.48.9-1.6.66-1.67.4-1.52.12h-47.88v-9.95h47.5l.34-.02.16-.04.15-.06.15-.08.12-.1.1-.12.08-.14.06-.14.05-.16.03-.35V121.77h9.95z" stroke="#3a414a" stroke-width=".05" fill="#3a414a"/><path d="M-1128.08 657.06h-5.13v-9.95h5.12z" fill="#3a414a"/><path stroke="#3a414a" stroke-width=".05" fill="#3a414a"/><path d="M-676.8 116.78h-9.28l4.63-14.27z" fill="#3a414a"/><path d="M-669.96 121.75h-22.97l11.48-35.34z" stroke="#3a414a" stroke-width=".05" fill="#3a414a"/><g><use xlink:href="#x" transform="matrix(1,0,0,1,-1076.9663342087208,638.6397352786156) translate(0 21.52777777777778)"/><use xlink:href="#D" transform="matrix(1,0,0,1,-1076.9663342087208,638.6397352786156) translate(19.60720486111111 21.52777777777778)"/><use xlink:href="#z" transform="matrix(1,0,0,1,-1076.9663342087208,638.6397352786156) translate(109.97178819444444 21.52777777777778)"/><use xlink:href="#A" transform="matrix(1,0,0,1,-1076.9663342087208,638.6397352786156) translate(202.3220486111111 21.52777777777778)"/><use xlink:href="#B" transform="matrix(1,0,0,1,-1076.9663342087208,638.6397352786156) translate(225.5425347222222 21.52777777777778)"/><use xlink:href="#C" transform="matrix(1,0,0,1,-1076.9663342087208,638.6397352786156) translate(267.1006944444444 21.52777777777778)"/></g><path d="M-1075.24 725.8h-52.97v-9.96h52.96zm469.7-10.8l-.13 1.53-.4 1.68-.66 1.6-.9 1.47-1.12 1.3-1.3 1.13-1.48.9-1.6.66-1.67.4-1.53.13h-114.34v-9.96h113.95l.36-.03.15-.03.14-.06.13-.07.12-.1.1-.13.08-.13.06-.15.04-.15.02-.36V121.8h9.96z" stroke="#3a414a" stroke-width=".05" fill="#3a414a"/><path d="M-1128.08 725.8h-5.13v-9.96h5.12z" fill="#3a414a"/><path stroke="#3a414a" stroke-width=".05" fill="#3a414a"/><path d="M-605.9 116.78h-9.26l4.64-14.27z" fill="#3a414a"/><path d="M-599.04 121.75H-622l11.48-35.34z" stroke="#3a414a" stroke-width=".05" fill="#3a414a"/><g><use xlink:href="#E" transform="matrix(1,0,0,1,-1075.2402085295153,707.3658320343113) translate(0 21.52777777777778)"/><use xlink:href="#F" transform="matrix(1,0,0,1,-1075.2402085295153,707.3658320343113) translate(77.13758680555556 21.52777777777778)"/><use xlink:href="#G" transform="matrix(1,0,0,1,-1075.2402085295153,707.3658320343113) translate(180.9787326388889 21.52777777777778)"/><use xlink:href="#H" transform="matrix(1,0,0,1,-1075.2402085295153,707.3658320343113) translate(261.55598958333337 21.52777777777778)"/></g><path d="M-1263.24 778.5l.03.37.03.15.06.15.07.13.1.12.13.1.13.1.15.05.15.04.35.03h264.23v9.95h-264.6l-1.53-.1-1.68-.42-1.6-.66-1.47-.9-1.3-1.12-1.13-1.3-.9-1.48-.66-1.6-.4-1.67-.13-1.52v-29.2h9.96zm726.85.4l-.1 1.53-.4 1.68-.67 1.6-.9 1.47-1.13 1.3-1.3 1.13-1.48.9-1.6.66-1.67.4-1.52.12h-231.5v-9.95h231.1l.36-.02.15-.03.14-.06.13-.07.12-.1.1-.13.08-.13.06-.15.03-.15.03-.36V121.8h9.95z" stroke="#3a414a" stroke-width=".05" fill="#3a414a"/><path d="M-1263.24 749.84h-9.95v-5.13h9.96z" fill="#3a414a"/><path stroke="#3a414a" stroke-width=".05" fill="#3a414a"/><path d="M-536.73 116.78H-546l4.63-14.27z" fill="#3a414a"/><path d="M-529.88 121.75h-22.97l11.48-35.34z" stroke="#3a414a" stroke-width=".05" fill="#3a414a"/><g><use xlink:href="#I" transform="matrix(1,0,0,1,-997.7952189461109,771.2654415156138) translate(0 21.52777777777778)"/><use xlink:href="#J" transform="matrix(1,0,0,1,-997.7952189461109,771.2654415156138) translate(144.4878472222222 21.52777777777778)"/></g><path d="M-115.8-44.26l-.02 9.95-81.6-.02v-9.95zm-319.62-.04v9.95h-43v-9.96z" stroke="#3a414a" stroke-width=".05" fill="#3a414a"/><path d="M-478.3-44.3v9.94h-5.12v-9.95z" fill="#3a414a"/><path stroke="#3a414a" stroke-width=".05" fill="#3a414a"/><path d="M-96.55-39.28l-14.27 4.63v-9.27z" fill="#3a414a"/><path d="M-80.45-39.28L-115.8-27.8v-22.97z" stroke="#3a414a" stroke-width=".05" fill="#3a414a"/><g><use xlink:href="#K" transform="matrix(1,0,0,1,-435.42022570001023,-52.75732951254744) translate(0 21.52777777777778)"/><use xlink:href="#L" transform="matrix(1,0,0,1,-435.42022570001023,-52.75732951254744) translate(110.03689236111113 21.52777777777778)"/><use xlink:href="#M" transform="matrix(1,0,0,1,-435.42022570001023,-52.75732951254744) translate(189.94140625 21.52777777777778)"/></g><defs><path d="M135 0v-1490h468l242 684c30 94 76 293 111 455 34-161 80-360 110-455l238-684h470V0h-307c0-447-3-765 11-1227-122 503-246 788-395 1227H826C676-435 552-717 427-1215c15 453 11 775 11 1215H135" id="N"/><path d="M440 22C227 22 68-92 68-313c0-250 202-322 422-343 195-21 271-24 271-105 0-95-63-149-175-149-116 0-187 57-211 129l-275-46c57-194 237-305 487-305 240 0 474 108 474 379V0H777v-155h-10C713-51 605 22 440 22zm85-211c140 0 238-93 238-211v-121c-37 26-156 42-222 51-111 16-185 59-185 149 0 87 70 132 169 132" id="O"/><path d="M128 0v-1118h300V0H128zm150-1264c-91 0-165-68-165-154 0-85 74-154 165-154 90 0 165 69 165 154 0 86-75 154-165 154" id="P"/><path d="M428-647V0H128v-1118h283l4 231c63-156 176-245 348-245 232 0 384 159 384 421V0H847v-659c0-139-76-222-202-222-128 0-217 86-217 234" id="Q"/><path d="M572 22C302 22 117-98 78-306l279-48c29 105 101 156 224 156 114 0 185-48 185-115 0-118-228-130-337-155-215-49-322-150-322-317 0-215 187-347 470-347 265 0 424 116 466 298l-266 47c-24-76-87-130-196-130-98 0-174 46-174 113 0 56 38 95 144 117l201 40c216 44 320 143 320 302 0 220-207 367-500 367" id="R"/><g id="a"><use transform="matrix(0.01953125,0,0,0.01953125,0,0)" xlink:href="#N"/><use transform="matrix(0.01953125,0,0,0.01953125,37.265625,0)" xlink:href="#O"/><use transform="matrix(0.01953125,0,0,0.01953125,60.48828125,0)" xlink:href="#P"/><use transform="matrix(0.01953125,0,0,0.01953125,71.328125,0)" xlink:href="#Q"/><use transform="matrix(0.01953125,0,0,0.01953125,96.23046875,0)" xlink:href="#R"/></g><path d="M659 20C335 20 103-159 99-418h307c5 112 113 185 254 185 147 0 250-83 250-204 0-123-105-209-278-209H494v-227h138c145 0 246-81 246-200 0-115-87-193-216-193-130 0-237 73-240 189H128c4-255 233-433 536-433 306 0 510 185 510 418 0 167-114 285-279 317v11c217 29 333 162 333 347 0 254-237 437-569 437" id="S"/><path d="M818-733v240H140v-240h678" id="T"/><path d="M135 0v-1490h581c339 0 533 210 533 503 0 295-197 500-540 500H440V0H135zm305-733h220c186 0 274-104 274-254s-88-251-275-251H440v505" id="U"/><path d="M428-647V0H128v-1490h294v586c65-146 175-228 341-228 232 0 385 159 385 421V0H847v-659c0-139-76-222-202-222-128 0-217 86-217 234" id="V"/><path d="M633 22C291 22 81-200 81-553c0-345 210-579 537-579 292 0 525 185 525 567v84H378c7 183 109 277 260 277 105 0 184-46 216-132l272 51C1071-99 893 22 633 22zM380-669h474c-15-146-94-237-233-237-143 0-229 99-241 237" id="W"/><g id="b"><use transform="matrix(0.01953125,0,0,0.01953125,0,0)" xlink:href="#S"/><use transform="matrix(0.01953125,0,0,0.01953125,25.8203125,0)" xlink:href="#T"/><use transform="matrix(0.01953125,0,0,0.01953125,44.53125,0)" xlink:href="#U"/><use transform="matrix(0.01953125,0,0,0.01953125,70.44921875,0)" xlink:href="#V"/><use transform="matrix(0.01953125,0,0,0.01953125,95.3515625,0)" xlink:href="#O"/><use transform="matrix(0.01953125,0,0,0.01953125,118.57421875,0)" xlink:href="#R"/><use transform="matrix(0.01953125,0,0,0.01953125,140.9765625,0)" xlink:href="#W"/></g><path d="M571 0L49-1490h339c138 427 271 775 384 1244 111-471 237-815 371-1244h337L970 0H571" id="X"/><path d="M128 0v-1118h290v195h12c54-169 184-238 367-200v268c-27-8-86-15-130-15-138 0-239 95-239 234V0H128" id="Y"/><path d="M628 22C291 22 81-210 81-554c0-346 210-578 547-578 265 0 455 142 497 372l-279 52c-25-116-99-188-215-188-160 0-244 139-244 341 0 200 84 341 244 341 116 0 193-74 217-195l279 51C1085-123 896 22 628 22" id="Z"/><g id="c"><use transform="matrix(0.01953125,0,0,0.01953125,0,0)" xlink:href="#X"/><use transform="matrix(0.01953125,0,0,0.01953125,27.5,0)" xlink:href="#O"/><use transform="matrix(0.01953125,0,0,0.01953125,50.72265625,0)" xlink:href="#Y"/><use transform="matrix(0.01953125,0,0,0.01953125,67.3046875,0)" xlink:href="#P"/><use transform="matrix(0.01953125,0,0,0.01953125,78.14453125,0)" xlink:href="#O"/><use transform="matrix(0.01953125,0,0,0.01953125,101.3671875,0)" xlink:href="#Z"/></g><g id="e"><use transform="matrix(0.010850694444444444,0,0,0.010850694444444444,0,0)" xlink:href="#S"/><use transform="matrix(0.010850694444444444,0,0,0.010850694444444444,14.344618055555555,0)" xlink:href="#T"/><use transform="matrix(0.010850694444444444,0,0,0.010850694444444444,24.739583333333332,0)" xlink:href="#U"/><use transform="matrix(0.010850694444444444,0,0,0.010850694444444444,39.13845486111111,0)" xlink:href="#V"/><use transform="matrix(0.010850694444444444,0,0,0.010850694444444444,52.97309027777778,0)" xlink:href="#O"/><use transform="matrix(0.010850694444444444,0,0,0.010850694444444444,65.87456597222221,0)" xlink:href="#R"/><use transform="matrix(0.010850694444444444,0,0,0.010850694444444444,78.32031249999999,0)" xlink:href="#W"/></g><path d="M628 22C291 22 81-210 81-554c0-346 210-578 547-578 336 0 547 232 547 578 0 344-211 576-547 576zm0-236c160 0 242-146 242-341 0-197-82-341-242-341S387-753 387-555c0 195 81 341 241 341" id="aa"/><path d="M428-1490V0H128v-1490h300" id="ab"/><path d="M683-1118v229H474v562c0 71 29 104 102 104 23 0 73-7 95-13l43 225C647 9 580 16 520 16 296 16 174-96 174-301v-588H20v-229h154v-266h300v266h209" id="ac"/><path d="M625 442c-280 0-454-114-503-274l258-72c28 63 97 128 243 128 153 0 246-69 246-216v-206h-23C805-108 717-16 536-16 284-16 81-191 81-561c0-378 208-571 456-571 188 0 280 113 321 202h13v-188h295V-9c0 303-226 451-541 451zm5-686c153 0 240-119 240-319 0-198-86-329-240-329-158 0-241 137-241 329 0 195 85 319 241 319" id="ad"/><g id="f"><use transform="matrix(0.010850694444444444,0,0,0.010850694444444444,0,0)" xlink:href="#X"/><use transform="matrix(0.010850694444444444,0,0,0.010850694444444444,15.234374999999996,0)" xlink:href="#aa"/><use transform="matrix(0.010850694444444444,0,0,0.010850694444444444,28.86284722222222,0)" xlink:href="#ab"/><use transform="matrix(0.010850694444444444,0,0,0.010850694444444444,35.21050347222222,0)" xlink:href="#ac"/><use transform="matrix(0.010850694444444444,0,0,0.010850694444444444,43.45703125,0)" xlink:href="#O"/><use transform="matrix(0.010850694444444444,0,0,0.010850694444444444,56.35850694444444,0)" xlink:href="#ad"/><use transform="matrix(0.010850694444444444,0,0,0.010850694444444444,70.39930555555556,0)" xlink:href="#W"/></g><path d="M513 14c-232 0-385-159-385-421v-711h300v659c0 139 76 222 202 222 127 0 217-86 217-234v-647h301V0H864l-4-232C797-74 683 14 513 14" id="ae"/><path d="M128 418v-1536h295v188h14c41-89 129-202 319-202 248 0 453 193 453 575 0 372-197 576-455 576-183 0-275-108-317-198h-9v597H128zm534-640c156 0 240-139 240-336 0-196-83-334-240-334-154 0-241 131-241 334 0 202 88 336 241 336" id="af"/><path d="M120 396l69-226c123 42 245 23 254-107l8-60L31-1118h319c87 288 199 559 259 872 72-308 185-583 277-872h315L726 132c-68 181-186 294-410 294-79 0-153-13-196-30" id="ag"/><g id="g"><use transform="matrix(0.010850694444444444,0,0,0.010850694444444444,0,0)" xlink:href="#R"/><use transform="matrix(0.010850694444444444,0,0,0.010850694444444444,12.445746527777777,0)" xlink:href="#ae"/><use transform="matrix(0.010850694444444444,0,0,0.010850694444444444,26.280381944444443,0)" xlink:href="#af"/><use transform="matrix(0.010850694444444444,0,0,0.010850694444444444,40.28862847222222,0)" xlink:href="#af"/><use transform="matrix(0.010850694444444444,0,0,0.010850694444444444,54.296875,0)" xlink:href="#ab"/><use transform="matrix(0.010850694444444444,0,0,0.010850694444444444,60.546875,0)" xlink:href="#ag"/></g><g id="h"><use transform="matrix(0.010850694444444444,0,0,0.010850694444444444,0,0)" xlink:href="#ac"/><use transform="matrix(0.010850694444444444,0,0,0.010850694444444444,7.921006944444444,0)" xlink:href="#aa"/></g><g id="i"><use transform="matrix(0.010850694444444444,0,0,0.010850694444444444,0,0)" xlink:href="#X"/><use transform="matrix(0.010850694444444444,0,0,0.010850694444444444,15.277777777777775,0)" xlink:href="#O"/><use transform="matrix(0.010850694444444444,0,0,0.010850694444444444,28.17925347222222,0)" xlink:href="#Y"/><use transform="matrix(0.010850694444444444,0,0,0.010850694444444444,37.39149305555556,0)" xlink:href="#P"/><use transform="matrix(0.010850694444444444,0,0,0.010850694444444444,43.41362847222222,0)" xlink:href="#O"/><use transform="matrix(0.010850694444444444,0,0,0.010850694444444444,56.315104166666664,0)" xlink:href="#Z"/></g><path d="M440-1490V0H135v-1490h305" id="ah"/><path d="M537 19C279 19 81-185 81-557c0-382 206-575 454-575 190 0 278 113 318 202h10v-560h300V0H868v-179h-15C812-89 719 19 537 19zm92-241c153 0 240-134 240-336 0-203-86-334-240-334-158 0-240 138-240 334 0 197 84 336 240 336" id="ai"/><g id="j"><use transform="matrix(0.01953125,0,0,0.01953125,0,0)" xlink:href="#ah"/><use transform="matrix(0.01953125,0,0,0.01953125,11.23046875,0)" xlink:href="#Q"/><use transform="matrix(0.01953125,0,0,0.01953125,36.1328125,0)" xlink:href="#ai"/><use transform="matrix(0.01953125,0,0,0.01953125,61.34765625,0)" xlink:href="#ae"/><use transform="matrix(0.01953125,0,0,0.01953125,86.25,0)" xlink:href="#Z"/><use transform="matrix(0.01953125,0,0,0.01953125,109.78515625,0)" xlink:href="#ac"/><use transform="matrix(0.01953125,0,0,0.01953125,124.43359375,0)" xlink:href="#P"/><use transform="matrix(0.01953125,0,0,0.01953125,135.2734375,0)" xlink:href="#aa"/><use transform="matrix(0.01953125,0,0,0.01953125,159.8046875,0)" xlink:href="#Q"/></g><g id="k"><use transform="matrix(0.01953125,0,0,0.01953125,0,0)" xlink:href="#N"/><use transform="matrix(0.01953125,0,0,0.01953125,37.265625,0)" xlink:href="#O"/><use transform="matrix(0.01953125,0,0,0.01953125,60.48828125,0)" xlink:href="#Z"/><use transform="matrix(0.01953125,0,0,0.01953125,84.0234375,0)" xlink:href="#V"/><use transform="matrix(0.01953125,0,0,0.01953125,108.92578125,0)" xlink:href="#P"/><use transform="matrix(0.01953125,0,0,0.01953125,119.765625,0)" xlink:href="#Q"/><use transform="matrix(0.01953125,0,0,0.01953125,144.66796875,0)" xlink:href="#W"/></g><path d="M754 19C571 19 479-89 437-179h-14V0H128v-1490h300v560h9c41-89 129-202 319-202 248 0 453 193 453 575 0 372-197 576-455 576zm-92-241c156 0 240-139 240-336 0-196-83-334-240-334-154 0-241 131-241 334 0 202 88 336 241 336" id="aj"/><g id="l"><use transform="matrix(0.010850694444444444,0,0,0.010850694444444444,0,0)" xlink:href="#X"/><use transform="matrix(0.010850694444444444,0,0,0.010850694444444444,15.277777777777775,0)" xlink:href="#O"/><use transform="matrix(0.010850694444444444,0,0,0.010850694444444444,28.17925347222222,0)" xlink:href="#Y"/><use transform="matrix(0.010850694444444444,0,0,0.010850694444444444,37.39149305555556,0)" xlink:href="#P"/><use transform="matrix(0.010850694444444444,0,0,0.010850694444444444,43.41362847222222,0)" xlink:href="#O"/><use transform="matrix(0.010850694444444444,0,0,0.010850694444444444,56.315104166666664,0)" xlink:href="#aj"/><use transform="matrix(0.010850694444444444,0,0,0.010850694444444444,70.32335069444444,0)" xlink:href="#ab"/><use transform="matrix(0.010850694444444444,0,0,0.010850694444444444,76.34548611111111,0)" xlink:href="#W"/></g><g id="m"><use transform="matrix(0.010850694444444444,0,0,0.010850694444444444,0,0)" xlink:href="#ah"/><use transform="matrix(0.010850694444444444,0,0,0.010850694444444444,6.239149305555555,0)" xlink:href="#N"/></g><g id="o"><use transform="matrix(0.01953125,0,0,0.01953125,0,0)" xlink:href="#N"/><use transform="matrix(0.01953125,0,0,0.01953125,37.265625,0)" xlink:href="#P"/><use transform="matrix(0.01953125,0,0,0.01953125,48.10546875,0)" xlink:href="#Z"/><use transform="matrix(0.01953125,0,0,0.01953125,71.640625,0)" xlink:href="#Y"/><use transform="matrix(0.01953125,0,0,0.01953125,86.953125,0)" xlink:href="#aa"/><use transform="matrix(0.01953125,0,0,0.01953125,111.484375,0)" xlink:href="#Z"/><use transform="matrix(0.01953125,0,0,0.01953125,135.01953125,0)" xlink:href="#aa"/><use transform="matrix(0.01953125,0,0,0.01953125,159.55078125,0)" xlink:href="#Q"/><use transform="matrix(0.01953125,0,0,0.01953125,184.453125,0)" xlink:href="#ac"/><use transform="matrix(0.01953125,0,0,0.01953125,199.1015625,0)" xlink:href="#Y"/><use transform="matrix(0.01953125,0,0,0.01953125,214.4140625,0)" xlink:href="#aa"/><use transform="matrix(0.01953125,0,0,0.01953125,238.9453125,0)" xlink:href="#ab"/><use transform="matrix(0.01953125,0,0,0.01953125,249.78515625,0)" xlink:href="#ab"/><use transform="matrix(0.01953125,0,0,0.01953125,260.625,0)" xlink:href="#W"/><use transform="matrix(0.01953125,0,0,0.01953125,284.453125,0)" xlink:href="#Y"/></g><path d="M169-607c0-330 107-732 258-974h279c-145 311-231 674-231 974 0 262 67 512 231 886H427C258-1 169-307 169-607" id="ak"/><path d="M75-1237v-253h1217v253H837V0H531v-1237H75" id="al"/><path d="M786 20C389 20 94-260 94-744c0-487 299-766 692-766 339 0 597 194 641 529h-309c-28-162-156-258-326-258-233 0-388 179-388 495 0 323 157 493 387 493 170 0 298-97 328-259h309c-34 277-266 530-642 530" id="am"/><path d="M124 0v-220l528-495c135-132 210-216 210-336 0-133-98-215-231-215-139 0-229 88-229 233H110c0-290 214-477 523-477 315 0 525 182 525 440 0 167-80 305-385 586L548-262v11h630V0H124" id="an"/><path d="M690 20C314 20 94-261 94-744c0-482 221-766 596-766 376 0 597 284 597 766 0 483-219 764-597 764zm0-253c184 0 286-184 286-511 0-328-102-514-286-514-183 0-285 187-285 514s101 511 285 511" id="ao"/><path d="M67 279c166-379 230-627 230-886 0-300-86-663-230-974h278c151 241 258 644 258 974 0 302-90 608-258 886H67" id="ap"/><g id="p"><use transform="matrix(0.01953125,0,0,0.01953125,0,0)" xlink:href="#ak"/><use transform="matrix(0.01953125,0,0,0.01953125,15.078125,0)" xlink:href="#al"/><use transform="matrix(0.01953125,0,0,0.01953125,41.77734375,0)" xlink:href="#ah"/><use transform="matrix(0.01953125,0,0,0.01953125,53.0078125,0)" xlink:href="#T"/><use transform="matrix(0.01953125,0,0,0.01953125,71.71875,0)" xlink:href="#am"/><use transform="matrix(0.01953125,0,0,0.01953125,101.30859375,0)" xlink:href="#an"/><use transform="matrix(0.01953125,0,0,0.01953125,126.50390625,0)" xlink:href="#ao"/><use transform="matrix(0.01953125,0,0,0.01953125,153.4765625,0)" xlink:href="#ao"/><use transform="matrix(0.01953125,0,0,0.01953125,180.44921875,0)" xlink:href="#ao"/><use transform="matrix(0.01953125,0,0,0.01953125,207.421875,0)" xlink:href="#ap"/></g><path d="M659 0H135v-1490h529c448 0 721 280 721 744 0 466-273 746-726 746zM440-263h204c287 0 437-148 437-483 0-333-150-481-435-481H440v964" id="aq"/><g id="q"><use transform="matrix(0.01953125,0,0,0.01953125,0,0)" xlink:href="#aq"/><use transform="matrix(0.01953125,0,0,0.01953125,28.88671875,0)" xlink:href="#P"/><use transform="matrix(0.01953125,0,0,0.01953125,39.7265625,0)" xlink:href="#ad"/><use transform="matrix(0.01953125,0,0,0.01953125,65,0)" xlink:href="#P"/><use transform="matrix(0.01953125,0,0,0.01953125,75.83984375,0)" xlink:href="#ac"/><use transform="matrix(0.01953125,0,0,0.01953125,90.68359375,0)" xlink:href="#O"/><use transform="matrix(0.01953125,0,0,0.01953125,113.90625,0)" xlink:href="#ab"/></g><path d="M361 0L31-1118h315c68 295 127 523 188 845 63-317 128-551 199-845h276c71 296 131 525 196 846 57-321 119-552 186-846h319L1378 0h-305c-73-261-148-486-204-771C813-484 740-261 666 0H361" id="ar"/><g id="r"><use transform="matrix(0.01953125,0,0,0.01953125,0,0)" xlink:href="#al"/><use transform="matrix(0.01953125,0,0,0.01953125,24.19921875,0)" xlink:href="#ar"/><use transform="matrix(0.01953125,0,0,0.01953125,58.203125,0)" xlink:href="#P"/><use transform="matrix(0.01953125,0,0,0.01953125,69.04296875,0)" xlink:href="#Q"/></g><g id="s"><use transform="matrix(0.01953125,0,0,0.01953125,0,0)" xlink:href="#N"/><use transform="matrix(0.01953125,0,0,0.01953125,37.265625,0)" xlink:href="#aa"/><use transform="matrix(0.01953125,0,0,0.01953125,61.796875,0)" xlink:href="#ai"/><use transform="matrix(0.01953125,0,0,0.01953125,87.01171875,0)" xlink:href="#W"/><use transform="matrix(0.01953125,0,0,0.01953125,110.83984375,0)" xlink:href="#ab"/><use transform="matrix(0.01953125,0,0,0.01953125,121.6796875,0)" xlink:href="#R"/></g><path d="M568-82v-393H183v-240h385v-393h254v393h386v240H822v393H568" id="as"/><use transform="matrix(0.01953125,0,0,0.01953125,0,0)" xlink:href="#as" id="t"/><g id="u"><use transform="matrix(0.01953125,0,0,0.01953125,0,0)" xlink:href="#aq"/><use transform="matrix(0.01953125,0,0,0.01953125,28.88671875,0)" xlink:href="#O"/><use transform="matrix(0.01953125,0,0,0.01953125,52.109375,0)" xlink:href="#R"/><use transform="matrix(0.01953125,0,0,0.01953125,74.51171875,0)" xlink:href="#V"/><use transform="matrix(0.01953125,0,0,0.01953125,99.4140625,0)" xlink:href="#aj"/><use transform="matrix(0.01953125,0,0,0.01953125,124.62890625,0)" xlink:href="#aa"/><use transform="matrix(0.01953125,0,0,0.01953125,149.55078125,0)" xlink:href="#O"/><use transform="matrix(0.01953125,0,0,0.01953125,172.7734375,0)" xlink:href="#Y"/><use transform="matrix(0.01953125,0,0,0.01953125,188.0859375,0)" xlink:href="#ai"/></g><g id="v"><use transform="matrix(0.01953125,0,0,0.01953125,0,0)" xlink:href="#ak"/><use transform="matrix(0.01953125,0,0,0.01953125,15.078125,0)" xlink:href="#P"/><use transform="matrix(0.01953125,0,0,0.01953125,25.91796875,0)" xlink:href="#Q"/></g><path d="M681 22C323 22 94-145 85-462h297c10 151 131 226 296 226 163 0 271-77 271-190 0-102-95-149-257-189l-164-41c-252-61-403-188-403-405 0-269 236-449 560-449 330 0 546 183 551 445H941c-11-119-106-188-259-188-156 0-244 72-244 172-3 156 226 185 373 221 250 61 445 186 445 436 0 271-213 446-575 446" id="at"/><path d="M128 0v-1118h278l12 217c60-163 185-234 319-234 143 0 236 81 288 251 63-172 205-251 359-251 205 0 357 138 357 381V0h-301v-697c0-126-76-187-177-187-114 0-184 79-184 196V0H789v-705c0-109-72-179-174-179-106 0-187 74-187 208V0H128" id="au"/><path d="M128 0v-1490h300v802h17l366-430h347L740-633 1179 0H826L514-456l-86 97V0H128" id="av"/><g id="w"><use transform="matrix(0.01953125,0,0,0.01953125,0,0)" xlink:href="#at"/><use transform="matrix(0.01953125,0,0,0.01953125,26.19140625,0)" xlink:href="#P"/><use transform="matrix(0.01953125,0,0,0.01953125,37.03125,0)" xlink:href="#au"/><use transform="matrix(0.01953125,0,0,0.01953125,73.53515625,0)" xlink:href="#ae"/><use transform="matrix(0.01953125,0,0,0.01953125,98.4375,0)" xlink:href="#ab"/><use transform="matrix(0.01953125,0,0,0.01953125,109.27734375,0)" xlink:href="#P"/><use transform="matrix(0.01953125,0,0,0.01953125,120.1171875,0)" xlink:href="#Q"/><use transform="matrix(0.01953125,0,0,0.01953125,145.01953125,0)" xlink:href="#av"/><use transform="matrix(0.01953125,0,0,0.01953125,168.22265625,0)" xlink:href="#ap"/></g><use transform="matrix(0.010850694444444444,0,0,0.010850694444444444,0,0)" xlink:href="#S" id="x"/><g id="y"><use transform="matrix(0.010850694444444444,0,0,0.010850694444444444,0,0)" xlink:href="#X"/><use transform="matrix(0.010850694444444444,0,0,0.010850694444444444,15.234374999999996,0)" xlink:href="#aa"/><use transform="matrix(0.010850694444444444,0,0,0.010850694444444444,28.86284722222222,0)" xlink:href="#ab"/><use transform="matrix(0.010850694444444444,0,0,0.010850694444444444,34.884982638888886,0)" xlink:href="#O"/><use transform="matrix(0.010850694444444444,0,0,0.010850694444444444,47.78645833333333,0)" xlink:href="#ac"/><use transform="matrix(0.010850694444444444,0,0,0.010850694444444444,55.70746527777778,0)" xlink:href="#ad"/><use transform="matrix(0.010850694444444444,0,0,0.010850694444444444,69.74826388888889,0)" xlink:href="#W"/></g><g id="z"><use transform="matrix(0.010850694444444444,0,0,0.010850694444444444,0,0)" xlink:href="#R"/><use transform="matrix(0.010850694444444444,0,0,0.010850694444444444,12.445746527777777,0)" xlink:href="#W"/><use transform="matrix(0.010850694444444444,0,0,0.010850694444444444,25.68359375,0)" xlink:href="#Q"/><use transform="matrix(0.010850694444444444,0,0,0.010850694444444444,39.518229166666664,0)" xlink:href="#R"/><use transform="matrix(0.010850694444444444,0,0,0.010850694444444444,51.96397569444444,0)" xlink:href="#aa"/><use transform="matrix(0.010850694444444444,0,0,0.010850694444444444,65.59244791666666,0)" xlink:href="#Y"/><use transform="matrix(0.010850694444444444,0,0,0.010850694444444444,74.64192708333333,0)" xlink:href="#R"/></g><path d="M749-1490V0H444v-1221h-10L93-980v-279l329-231h327" id="aw"/><g id="A"><use transform="matrix(0.010850694444444444,0,0,0.010850694444444444,0,0)" xlink:href="#ak"/><use transform="matrix(0.010850694444444444,0,0,0.010850694444444444,8.37673611111111,0)" xlink:href="#aw"/></g><g id="B"><use transform="matrix(0.010850694444444444,0,0,0.010850694444444444,0,0)" xlink:href="#af"/><use transform="matrix(0.010850694444444444,0,0,0.010850694444444444,14.008246527777777,0)" xlink:href="#W"/><use transform="matrix(0.010850694444444444,0,0,0.010850694444444444,27.24609375,0)" xlink:href="#Y"/></g><g id="C"><use transform="matrix(0.010850694444444444,0,0,0.010850694444444444,0,0)" xlink:href="#af"/><use transform="matrix(0.010850694444444444,0,0,0.010850694444444444,14.225260416666666,0)" xlink:href="#O"/><use transform="matrix(0.010850694444444444,0,0,0.010850694444444444,27.12673611111111,0)" xlink:href="#V"/><use transform="matrix(0.010850694444444444,0,0,0.010850694444444444,40.96137152777778,0)" xlink:href="#R"/><use transform="matrix(0.010850694444444444,0,0,0.010850694444444444,53.40711805555556,0)" xlink:href="#W"/><use transform="matrix(0.010850694444444444,0,0,0.010850694444444444,66.36284722222223,0)" xlink:href="#ap"/></g><g id="D"><use transform="matrix(0.010850694444444444,0,0,0.010850694444444444,0,0)" xlink:href="#Z"/><use transform="matrix(0.010850694444444444,0,0,0.010850694444444444,13.075086805555555,0)" xlink:href="#ae"/><use transform="matrix(0.010850694444444444,0,0,0.010850694444444444,26.90972222222222,0)" xlink:href="#Y"/><use transform="matrix(0.010850694444444444,0,0,0.010850694444444444,36.12196180555556,0)" xlink:href="#Y"/><use transform="matrix(0.010850694444444444,0,0,0.010850694444444444,44.62890625,0)" xlink:href="#W"/><use transform="matrix(0.010850694444444444,0,0,0.010850694444444444,57.86675347222222,0)" xlink:href="#Q"/><use transform="matrix(0.010850694444444444,0,0,0.010850694444444444,71.70138888888889,0)" xlink:href="#ac"/></g><path fill="#333" d="M135 0v-1490h581c339 0 533 192 533 485 0 204-94 351-264 424L1302 0H964L680-532H440V0H135zm305-779h220c186 0 274-77 274-226 0-150-88-233-275-233H440v459" id="ax"/><path fill="#333" d="M628 22C291 22 81-210 81-554c0-346 210-578 547-578 336 0 547 232 547 578 0 344-211 576-547 576zm0-236c160 0 242-146 242-341 0-197-82-341-242-341S387-753 387-555c0 195 81 341 241 341" id="ay"/><path fill="#333" d="M683-1118v229H474v562c0 71 29 104 102 104 23 0 73-7 95-13l43 225C647 9 580 16 520 16 296 16 174-96 174-301v-588H20v-229h154v-266h300v266h209" id="az"/><path fill="#333" d="M440 22C227 22 68-92 68-313c0-250 202-322 422-343 195-21 271-24 271-105 0-95-63-149-175-149-116 0-187 57-211 129l-275-46c57-194 237-305 487-305 240 0 474 108 474 379V0H777v-155h-10C713-51 605 22 440 22zm85-211c140 0 238-93 238-211v-121c-37 26-156 42-222 51-111 16-185 59-185 149 0 87 70 132 169 132" id="aA"/><path fill="#333" d="M128 0v-1118h290v195h12c54-169 184-238 367-200v268c-27-8-86-15-130-15-138 0-239 95-239 234V0H128" id="aB"/><path fill="#333" d="M120 396l69-226c123 42 245 23 254-107l8-60L31-1118h319c87 288 199 559 259 872 72-308 185-583 277-872h315L726 132c-68 181-186 294-410 294-79 0-153-13-196-30" id="aC"/><g id="E"><use transform="matrix(0.010850694444444444,0,0,0.010850694444444444,0,0)" xlink:href="#ax"/><use transform="matrix(0.010850694444444444,0,0,0.010850694444444444,14.322916666666666,0)" xlink:href="#ay"/><use transform="matrix(0.010850694444444444,0,0,0.010850694444444444,27.95138888888889,0)" xlink:href="#az"/><use transform="matrix(0.010850694444444444,0,0,0.010850694444444444,36.197916666666664,0)" xlink:href="#aA"/><use transform="matrix(0.010850694444444444,0,0,0.010850694444444444,49.09939236111111,0)" xlink:href="#aB"/><use transform="matrix(0.010850694444444444,0,0,0.010850694444444444,58.496093749999986,0)" xlink:href="#aC"/></g><path fill="#333" d="M633 22C291 22 81-200 81-553c0-345 210-579 537-579 292 0 525 185 525 567v84H378c7 183 109 277 260 277 105 0 184-46 216-132l272 51C1071-99 893 22 633 22zM380-669h474c-15-146-94-237-233-237-143 0-229 99-241 237" id="aD"/><path fill="#333" d="M428-647V0H128v-1118h283l4 231c63-156 176-245 348-245 232 0 384 159 384 421V0H847v-659c0-139-76-222-202-222-128 0-217 86-217 234" id="aE"/><path fill="#333" d="M628 22C291 22 81-210 81-554c0-346 210-578 547-578 265 0 455 142 497 372l-279 52c-25-116-99-188-215-188-160 0-244 139-244 341 0 200 84 341 244 341 116 0 193-74 217-195l279 51C1085-123 896 22 628 22" id="aF"/><path fill="#333" d="M537 19C279 19 81-185 81-557c0-382 206-575 454-575 190 0 278 113 318 202h10v-560h300V0H868v-179h-15C812-89 719 19 537 19zm92-241c153 0 240-134 240-336 0-203-86-334-240-334-158 0-240 138-240 334 0 197 84 336 240 336" id="aG"/><g id="F"><use transform="matrix(0.010850694444444444,0,0,0.010850694444444444,0,0)" xlink:href="#aD"/><use transform="matrix(0.010850694444444444,0,0,0.010850694444444444,13.237847222222221,0)" xlink:href="#aE"/><use transform="matrix(0.010850694444444444,0,0,0.010850694444444444,27.07248263888889,0)" xlink:href="#aF"/><use transform="matrix(0.010850694444444444,0,0,0.010850694444444444,40.14756944444444,0)" xlink:href="#ay"/><use transform="matrix(0.010850694444444444,0,0,0.010850694444444444,53.776041666666664,0)" xlink:href="#aB"/><use transform="matrix(0.010850694444444444,0,0,0.010850694444444444,62.28298611111111,0)" xlink:href="#aG"/><use transform="matrix(0.010850694444444444,0,0,0.010850694444444444,76.29123263888889,0)" xlink:href="#aD"/><use transform="matrix(0.010850694444444444,0,0,0.010850694444444444,89.52907986111111,0)" xlink:href="#aB"/></g><path fill="#333" d="M169-607c0-330 107-732 258-974h279c-145 311-231 674-231 974 0 262 67 512 231 886H427C258-1 169-307 169-607" id="aH"/><path fill="#333" d="M572 22C302 22 117-98 78-306l279-48c29 105 101 156 224 156 114 0 185-48 185-115 0-118-228-130-337-155-215-49-322-150-322-317 0-215 187-347 470-347 265 0 424 116 466 298l-266 47c-24-76-87-130-196-130-98 0-174 46-174 113 0 56 38 95 144 117l201 40c216 44 320 143 320 302 0 220-207 367-500 367" id="aI"/><path fill="#333" d="M128 418v-1536h295v188h14c41-89 129-202 319-202 248 0 453 193 453 575 0 372-197 576-455 576-183 0-275-108-317-198h-9v597H128zm534-640c156 0 240-139 240-336 0-196-83-334-240-334-154 0-241 131-241 334 0 202 88 336 241 336" id="aJ"/><g id="G"><use transform="matrix(0.010850694444444444,0,0,0.010850694444444444,0,0)" xlink:href="#aH"/><use transform="matrix(0.010850694444444444,0,0,0.010850694444444444,8.37673611111111,0)" xlink:href="#aI"/><use transform="matrix(0.010850694444444444,0,0,0.010850694444444444,20.822482638888886,0)" xlink:href="#aJ"/><use transform="matrix(0.010850694444444444,0,0,0.010850694444444444,34.830729166666664,0)" xlink:href="#aD"/><use transform="matrix(0.010850694444444444,0,0,0.010850694444444444,48.068576388888886,0)" xlink:href="#aD"/><use transform="matrix(0.010850694444444444,0,0,0.010850694444444444,61.30642361111111,0)" xlink:href="#aG"/></g><path fill="#333" d="M67 279c166-379 230-627 230-886 0-300-86-663-230-974h278c151 241 258 644 258 974 0 302-90 608-258 886H67" id="aK"/><g id="H"><use transform="matrix(0.010850694444444444,0,0,0.010850694444444444,0,0)" xlink:href="#aI"/><use transform="matrix(0.010850694444444444,0,0,0.010850694444444444,12.445746527777777,0)" xlink:href="#aD"/><use transform="matrix(0.010850694444444444,0,0,0.010850694444444444,25.68359375,0)" xlink:href="#aE"/><use transform="matrix(0.010850694444444444,0,0,0.010850694444444444,39.518229166666664,0)" xlink:href="#aI"/><use transform="matrix(0.010850694444444444,0,0,0.010850694444444444,51.96397569444444,0)" xlink:href="#ay"/><use transform="matrix(0.010850694444444444,0,0,0.010850694444444444,65.59244791666666,0)" xlink:href="#aB"/><use transform="matrix(0.010850694444444444,0,0,0.010850694444444444,74.64192708333333,0)" xlink:href="#aK"/></g><path fill="#333" d="M75-1237v-253h1217v253H837V0H531v-1237H75" id="aL"/><path fill="#333" d="M128 0v-1118h278l12 217c60-163 185-234 319-234 143 0 236 81 288 251 63-172 205-251 359-251 205 0 357 138 357 381V0h-301v-697c0-126-76-187-177-187-114 0-184 79-184 196V0H789v-705c0-109-72-179-174-179-106 0-187 74-187 208V0H128" id="aM"/><path fill="#333" d="M513 14c-232 0-385-159-385-421v-711h300v659c0 139 76 222 202 222 127 0 217-86 217-234v-647h301V0H864l-4-232C797-74 683 14 513 14" id="aN"/><g id="I"><use transform="matrix(0.010850694444444444,0,0,0.010850694444444444,0,0)" xlink:href="#aL"/><use transform="matrix(0.010850694444444444,0,0,0.010850694444444444,13.096788194444445,0)" xlink:href="#aD"/><use transform="matrix(0.010850694444444444,0,0,0.010850694444444444,26.334635416666664,0)" xlink:href="#aM"/><use transform="matrix(0.010850694444444444,0,0,0.010850694444444444,46.61458333333333,0)" xlink:href="#aJ"/><use transform="matrix(0.010850694444444444,0,0,0.010850694444444444,60.62282986111111,0)" xlink:href="#aD"/><use transform="matrix(0.010850694444444444,0,0,0.010850694444444444,73.86067708333333,0)" xlink:href="#aB"/><use transform="matrix(0.010850694444444444,0,0,0.010850694444444444,82.60633680555556,0)" xlink:href="#aA"/><use transform="matrix(0.010850694444444444,0,0,0.010850694444444444,95.5078125,0)" xlink:href="#az"/><use transform="matrix(0.010850694444444444,0,0,0.010850694444444444,103.64583333333333,0)" xlink:href="#aN"/><use transform="matrix(0.010850694444444444,0,0,0.010850694444444444,117.48046875,0)" xlink:href="#aB"/><use transform="matrix(0.010850694444444444,0,0,0.010850694444444444,125.98741319444444,0)" xlink:href="#aD"/></g><g id="J"><use transform="matrix(0.010850694444444444,0,0,0.010850694444444444,0,0)" xlink:href="#aI"/><use transform="matrix(0.010850694444444444,0,0,0.010850694444444444,12.445746527777777,0)" xlink:href="#aD"/><use transform="matrix(0.010850694444444444,0,0,0.010850694444444444,25.68359375,0)" xlink:href="#aE"/><use transform="matrix(0.010850694444444444,0,0,0.010850694444444444,39.518229166666664,0)" xlink:href="#aI"/><use transform="matrix(0.010850694444444444,0,0,0.010850694444444444,51.96397569444444,0)" xlink:href="#ay"/><use transform="matrix(0.010850694444444444,0,0,0.010850694444444444,65.59244791666666,0)" xlink:href="#aB"/></g><path fill="#333" d="M428-1490V0H128v-1490h300" id="aO"/><path fill="#333" d="M818-733v240H140v-240h678" id="aP"/><path fill="#333" d="M128 0v-1118h300V0H128zm150-1264c-91 0-165-68-165-154 0-85 74-154 165-154 90 0 165 69 165 154 0 86-75 154-165 154" id="aQ"/><g id="K"><use transform="matrix(0.010850694444444444,0,0,0.010850694444444444,0,0)" xlink:href="#ax"/><use transform="matrix(0.010850694444444444,0,0,0.010850694444444444,14.322916666666666,0)" xlink:href="#aD"/><use transform="matrix(0.010850694444444444,0,0,0.010850694444444444,27.77777777777778,0)" xlink:href="#aA"/><use transform="matrix(0.010850694444444444,0,0,0.010850694444444444,40.67925347222222,0)" xlink:href="#aO"/><use transform="matrix(0.010850694444444444,0,0,0.010850694444444444,46.701388888888886,0)" xlink:href="#aP"/><use transform="matrix(0.010850694444444444,0,0,0.010850694444444444,57.096354166666664,0)" xlink:href="#az"/><use transform="matrix(0.010850694444444444,0,0,0.010850694444444444,65.234375,0)" xlink:href="#aQ"/><use transform="matrix(0.010850694444444444,0,0,0.010850694444444444,71.25651041666667,0)" xlink:href="#aM"/><use transform="matrix(0.010850694444444444,0,0,0.010850694444444444,91.53645833333334,0)" xlink:href="#aD"/></g><g id="L"><use transform="matrix(0.010850694444444444,0,0,0.010850694444444444,0,0)" xlink:href="#aI"/><use transform="matrix(0.010850694444444444,0,0,0.010850694444444444,12.445746527777777,0)" xlink:href="#aD"/><use transform="matrix(0.010850694444444444,0,0,0.010850694444444444,25.68359375,0)" xlink:href="#aE"/><use transform="matrix(0.010850694444444444,0,0,0.010850694444444444,39.518229166666664,0)" xlink:href="#aI"/><use transform="matrix(0.010850694444444444,0,0,0.010850694444444444,51.96397569444444,0)" xlink:href="#ay"/><use transform="matrix(0.010850694444444444,0,0,0.010850694444444444,65.59244791666666,0)" xlink:href="#aB"/></g><g id="M"><use transform="matrix(0.010850694444444444,0,0,0.010850694444444444,0,0)" xlink:href="#aG"/><use transform="matrix(0.010850694444444444,0,0,0.010850694444444444,14.008246527777777,0)" xlink:href="#aA"/><use transform="matrix(0.010850694444444444,0,0,0.010850694444444444,26.90972222222222,0)" xlink:href="#az"/><use transform="matrix(0.010850694444444444,0,0,0.010850694444444444,35.15625,0)" xlink:href="#aA"/></g></defs></g></svg>